<mxfile host="65bd71144e">
    <diagram id="pBK1guH4bu_zmOCUXD5L" name="Top Down">
        <mxGraphModel dx="1255" dy="299" grid="1" gridSize="10" guides="1" tooltips="1" connect="1" arrows="1" fold="1" page="1" pageScale="1" pageWidth="827" pageHeight="1169" math="0" shadow="0">
            <root>
                <mxCell id="0"/>
                <mxCell id="1" parent="0"/>
                <mxCell id="kIHPj6zRgX1InL4mbEAz-5" style="edgeStyle=none;html=1;entryX=0.5;entryY=0;entryDx=0;entryDy=0;" edge="1" parent="1" source="kIHPj6zRgX1InL4mbEAz-1" target="kIHPj6zRgX1InL4mbEAz-2">
                    <mxGeometry relative="1" as="geometry"/>
                </mxCell>
                <mxCell id="kIHPj6zRgX1InL4mbEAz-6" style="edgeStyle=orthogonalEdgeStyle;html=1;rounded=0;" edge="1" parent="1" source="kIHPj6zRgX1InL4mbEAz-1" target="kIHPj6zRgX1InL4mbEAz-3">
                    <mxGeometry relative="1" as="geometry">
                        <Array as="points">
                            <mxPoint x="330" y="160"/>
                            <mxPoint x="130" y="160"/>
                        </Array>
                    </mxGeometry>
                </mxCell>
                <mxCell id="kIHPj6zRgX1InL4mbEAz-7" style="edgeStyle=orthogonalEdgeStyle;rounded=0;html=1;" edge="1" parent="1" source="kIHPj6zRgX1InL4mbEAz-1" target="kIHPj6zRgX1InL4mbEAz-4">
                    <mxGeometry relative="1" as="geometry">
                        <Array as="points">
                            <mxPoint x="330" y="160"/>
                            <mxPoint x="520" y="160"/>
                        </Array>
                    </mxGeometry>
                </mxCell>
                <mxCell id="kIHPj6zRgX1InL4mbEAz-1" value="Area and Perimeter" style="rounded=0;whiteSpace=wrap;html=1;" vertex="1" parent="1">
                    <mxGeometry x="270" y="80" width="120" height="60" as="geometry"/>
                </mxCell>
                <mxCell id="kIHPj6zRgX1InL4mbEAz-14" style="edgeStyle=orthogonalEdgeStyle;rounded=0;html=1;" edge="1" parent="1" source="kIHPj6zRgX1InL4mbEAz-2" target="kIHPj6zRgX1InL4mbEAz-12">
                    <mxGeometry relative="1" as="geometry"/>
                </mxCell>
                <mxCell id="kIHPj6zRgX1InL4mbEAz-15" style="edgeStyle=orthogonalEdgeStyle;rounded=0;html=1;" edge="1" parent="1" source="kIHPj6zRgX1InL4mbEAz-2" target="kIHPj6zRgX1InL4mbEAz-13">
                    <mxGeometry relative="1" as="geometry"/>
                </mxCell>
                <mxCell id="kIHPj6zRgX1InL4mbEAz-2" value="Process" style="rounded=0;whiteSpace=wrap;html=1;" vertex="1" parent="1">
                    <mxGeometry x="270" y="200" width="120" height="60" as="geometry"/>
                </mxCell>
                <mxCell id="kIHPj6zRgX1InL4mbEAz-10" style="edgeStyle=orthogonalEdgeStyle;rounded=0;html=1;" edge="1" parent="1" source="kIHPj6zRgX1InL4mbEAz-3" target="kIHPj6zRgX1InL4mbEAz-8">
                    <mxGeometry relative="1" as="geometry">
                        <Array as="points">
                            <mxPoint x="130" y="290"/>
                            <mxPoint x="160" y="290"/>
                        </Array>
                    </mxGeometry>
                </mxCell>
                <mxCell id="kIHPj6zRgX1InL4mbEAz-11" style="edgeStyle=orthogonalEdgeStyle;rounded=0;html=1;" edge="1" parent="1" source="kIHPj6zRgX1InL4mbEAz-3" target="kIHPj6zRgX1InL4mbEAz-9">
                    <mxGeometry relative="1" as="geometry">
                        <Array as="points">
                            <mxPoint x="130" y="290"/>
                            <mxPoint x="-20" y="290"/>
                        </Array>
                    </mxGeometry>
                </mxCell>
                <mxCell id="kIHPj6zRgX1InL4mbEAz-3" value="Input" style="rounded=0;whiteSpace=wrap;html=1;" vertex="1" parent="1">
                    <mxGeometry x="70" y="200" width="120" height="60" as="geometry"/>
                </mxCell>
                <mxCell id="kIHPj6zRgX1InL4mbEAz-18" style="edgeStyle=orthogonalEdgeStyle;rounded=0;html=1;" edge="1" parent="1" source="kIHPj6zRgX1InL4mbEAz-4" target="kIHPj6zRgX1InL4mbEAz-16">
                    <mxGeometry relative="1" as="geometry"/>
                </mxCell>
                <mxCell id="kIHPj6zRgX1InL4mbEAz-19" style="edgeStyle=orthogonalEdgeStyle;rounded=0;html=1;entryX=0.5;entryY=0;entryDx=0;entryDy=0;" edge="1" parent="1" source="kIHPj6zRgX1InL4mbEAz-4" target="kIHPj6zRgX1InL4mbEAz-17">
                    <mxGeometry relative="1" as="geometry">
                        <Array as="points">
                            <mxPoint x="520" y="280"/>
                            <mxPoint x="710" y="280"/>
                        </Array>
                    </mxGeometry>
                </mxCell>
                <mxCell id="kIHPj6zRgX1InL4mbEAz-4" value="Output" style="rounded=0;whiteSpace=wrap;html=1;" vertex="1" parent="1">
                    <mxGeometry x="460" y="200" width="120" height="60" as="geometry"/>
                </mxCell>
                <mxCell id="kIHPj6zRgX1InL4mbEAz-8" value="Get Width" style="rounded=0;whiteSpace=wrap;html=1;" vertex="1" parent="1">
                    <mxGeometry x="80" y="330" width="120" height="60" as="geometry"/>
                </mxCell>
                <mxCell id="kIHPj6zRgX1InL4mbEAz-9" value="Get Length" style="rounded=0;whiteSpace=wrap;html=1;" vertex="1" parent="1">
                    <mxGeometry x="-80" y="330" width="120" height="60" as="geometry"/>
                </mxCell>
                <mxCell id="kIHPj6zRgX1InL4mbEAz-12" value="area = length * width" style="rounded=0;whiteSpace=wrap;html=1;" vertex="1" parent="1">
                    <mxGeometry x="220" y="330" width="120" height="60" as="geometry"/>
                </mxCell>
                <mxCell id="kIHPj6zRgX1InL4mbEAz-13" value="perimeter = 2 * (length + width)" style="rounded=0;whiteSpace=wrap;html=1;" vertex="1" parent="1">
                    <mxGeometry x="360" y="330" width="120" height="60" as="geometry"/>
                </mxCell>
                <mxCell id="kIHPj6zRgX1InL4mbEAz-16" value="Show area" style="rounded=0;whiteSpace=wrap;html=1;" vertex="1" parent="1">
                    <mxGeometry x="510" y="330" width="120" height="60" as="geometry"/>
                </mxCell>
                <mxCell id="kIHPj6zRgX1InL4mbEAz-17" value="Show perimter" style="rounded=0;whiteSpace=wrap;html=1;" vertex="1" parent="1">
                    <mxGeometry x="650" y="330" width="120" height="60" as="geometry"/>
                </mxCell>
            </root>
        </mxGraphModel>
    </diagram>
</mxfile>